<svg xmlns="http://www.w3.org/2000/svg" viewBox="0 0 64 64" role="img" aria-label="MonkeyWifHat favicon">
  <rect width="64" height="64" rx="16" fill="#f7edd8"/>
  <ellipse cx="32" cy="25" rx="16" ry="7" fill="#31371d"/>
  <path d="M20 14h24a0 0 0 0 1 0 0v13a6 6 0 0 1-6 6H26a6 6 0 0 1-6-6V14a0 0 0 0 1 0 0z" fill="#59613a"/>
  <circle cx="32" cy="38" r="16" fill="#bc6d3c"/>
  <ellipse cx="32" cy="41" rx="12" ry="10" fill="#e2ab69"/>
  <circle cx="26" cy="37" r="2.5" fill="#1f1a16"/>
  <circle cx="38" cy="37" r="2.5" fill="#1f1a16"/>
  <path d="M25 46c2.8 3.1 11.2 3.1 14 0" fill="none" stroke="#1f1a16" stroke-width="2.5" stroke-linecap="round"/>
</svg>
